<?xml version="1.0" encoding="iso-8859-1"?>
<!-- Uploaded to: SVG Repo, www.svgrepo.com, Generator: SVG Repo Mixer Tools -->
<svg fill="#000000" height="800px" width="800px" version="1.1" id="Layer_1" xmlns="http://www.w3.org/2000/svg" xmlns:xlink="http://www.w3.org/1999/xlink" 
	 viewBox="0 0 512 512" xml:space="preserve">
<g>
	<g>
		<path d="M413.957,0H98.043C75.517,0,57.192,18.325,57.192,40.851v430.298c0,22.526,18.325,40.851,40.851,40.851h315.915
			c22.526,0,40.851-18.325,40.851-40.851V40.851C454.809,18.325,436.483,0,413.957,0z M187.915,16.34h136.17v16.34h-136.17V16.34z
			 M187.915,49.021h136.17v19.064c0,4.506-3.665,8.17-8.17,8.17h-119.83c-4.506,0-8.17-3.665-8.17-8.17V49.021z M196.085,92.596
			h119.83c13.516,0,24.511-10.996,24.511-24.511V49.021h65.362v315.915h-89.872c-4.512,0-8.17,3.657-8.17,8.17v89.872H106.213
			V49.021h65.362v19.064C171.574,81.6,182.569,92.596,196.085,92.596z M394.233,381.277l-70.148,70.148v-70.148H394.233z
			 M438.468,471.149c0,13.515-10.995,24.511-24.511,24.511H98.043c-13.516,0-24.511-10.996-24.511-24.511V40.851
			c0-13.515,10.995-24.511,24.511-24.511h73.532v16.34H98.043c-4.512,0-8.17,3.657-8.17,8.17v430.298c0,4.513,3.658,8.17,8.17,8.17
			h217.872c2.167,0,4.245-0.861,5.777-2.392l98.043-98.043c1.533-1.533,2.393-3.61,2.393-5.778V40.851c0-4.513-3.658-8.17-8.17-8.17
			h-73.532V16.34h73.532c13.516,0,24.511,10.996,24.511,24.511V471.149z"/>
	</g>
</g>
<g>
	<g>
		<path d="M348.596,272.34h-2.723V128c0-4.513-3.658-8.17-8.17-8.17h-32.681c-4.512,0-8.17,3.657-8.17,8.17v119.83
			c0,4.513,3.658,8.17,8.17,8.17c4.512,0,8.17-3.657,8.17-8.17V136.17h16.34v136.17h-49.021v-111.66c0-4.513-3.658-8.17-8.17-8.17
			H239.66c-4.512,0-8.17,3.657-8.17,8.17v87.149c0,4.513,3.658,8.17,8.17,8.17c4.512,0,8.17-3.657,8.17-8.17v-78.979h16.34V272.34
			h-49.021v-78.979c0-4.513-3.658-8.17-8.17-8.17h-32.681c-4.512,0-8.17,3.657-8.17,8.17v54.468c0,4.513,3.658,8.17,8.17,8.17
			c4.512,0,8.17-3.657,8.17-8.17v-46.298h16.34v70.809h-35.404c-4.512,0-8.17,3.657-8.17,8.17c0,4.513,3.658,8.17,8.17,8.17h185.192
			c4.512,0,8.17-3.657,8.17-8.17C356.766,275.997,353.108,272.34,348.596,272.34z"/>
	</g>
</g>
<g>
	<g>
		<path d="M227.404,364.936h-64c-4.512,0-8.17,3.657-8.17,8.17s3.658,8.17,8.17,8.17h64c4.512,0,8.17-3.657,8.17-8.17
			S231.916,364.936,227.404,364.936z"/>
	</g>
</g>
<g>
	<g>
		<path d="M291.404,318.638h-128c-4.512,0-8.17,3.657-8.17,8.17c0,4.513,3.658,8.17,8.17,8.17h128c4.512,0,8.17-3.657,8.17-8.17
			C299.574,322.295,295.916,318.638,291.404,318.638z"/>
	</g>
</g>
</svg>