<svg width="19" height="24" viewBox="0 0 19 24" fill="none" xmlns="http://www.w3.org/2000/svg">
<path d="M17.2589 5.59536L14.8923 4.47138L15.015 4.21305C15.552 3.08248 15.069 1.72577 13.9385 1.18875L11.9001 0.220679C11.3525 -0.0395079 10.7364 -0.0706053 10.165 0.132626C9.59378 0.335942 9.13594 0.749587 8.87584 1.29726L8.75314 1.55558L6.38653 0.431515C5.1483 -0.156461 3.66222 0.372532 3.07399 1.61076L2.46809 2.88626C2.37193 3.08873 2.36018 3.32112 2.43531 3.53221C2.51052 3.74338 2.66642 3.91602 2.8689 4.01219L9.14059 6.99094H0.844019C0.607662 6.99094 0.382207 7.0899 0.222241 7.2638C0.0621915 7.4378 -0.0176644 7.67069 0.0019404 7.9062L1.11257 21.2329C1.24186 22.7846 2.56282 24 4.11989 24H10.3343C11.8913 24 13.2122 22.7846 13.3415 21.2329L14.3233 9.45245L16.7067 10.5845C16.8237 10.6401 16.9471 10.6663 17.0686 10.6663C17.3847 10.6663 17.6879 10.4882 17.8325 10.1837L18.4384 8.90824C19.0262 7.66967 18.4973 6.18359 17.2589 5.59536ZM10.4025 2.0223C10.4689 1.88244 10.5859 1.77681 10.7317 1.72476C10.8778 1.67287 11.0351 1.68073 11.1749 1.74732L13.2132 2.71531C13.5021 2.85254 13.6254 3.19918 13.4883 3.48801L13.3656 3.74634L10.2797 2.28071L10.4025 2.0223ZM11.6571 21.0925C11.6002 21.775 11.0191 22.3098 10.3342 22.3098H4.1198C3.43482 22.3098 2.85368 21.775 2.79681 21.0925L1.76249 8.68093H12.6915L11.6571 21.0925ZM16.9115 8.18295L16.6683 8.69504L4.35734 2.8479L4.60063 2.33572C4.78899 1.93898 5.26508 1.76971 5.66149 1.95807L16.5338 7.12192C16.9305 7.31036 17.0999 7.78637 16.9115 8.18295Z" fill="#737373"/>
</svg>
