<svg width="40" height="40" viewBox="0 0 40 40" fill="none" xmlns="http://www.w3.org/2000/svg">
<path d="M19.9987 3.33398C16.7023 3.33398 13.48 4.31147 10.7392 6.14282C7.99838 7.97418 5.86217 10.5772 4.60071 13.6226C3.33925 16.668 3.0092 20.0191 3.65228 23.2522C4.29537 26.4852 5.88272 29.4549 8.21359 31.7858C10.5445 34.1166 13.5142 35.704 16.7472 36.3471C19.9802 36.9902 23.3313 36.6601 26.3768 35.3986C29.4222 34.1372 32.0252 32.001 33.8565 29.2602C35.6879 26.5193 36.6654 23.297 36.6654 20.0006C36.6654 17.812 36.2343 15.6447 35.3967 13.6226C34.5591 11.6005 33.3315 9.76318 31.7838 8.21554C30.2362 6.66789 28.3989 5.44024 26.3768 4.60266C24.3547 3.76508 22.1874 3.33398 19.9987 3.33398ZM26.182 23.8173C26.3383 23.9723 26.4622 24.1566 26.5469 24.3597C26.6315 24.5628 26.675 24.7806 26.675 25.0006C26.675 25.2207 26.6315 25.4385 26.5469 25.6416C26.4622 25.8447 26.3383 26.029 26.182 26.184C26.0271 26.3402 25.8428 26.4642 25.6397 26.5488C25.4366 26.6334 25.2187 26.677 24.9987 26.677C24.7787 26.677 24.5608 26.6334 24.3577 26.5488C24.1546 26.4642 23.9703 26.3402 23.8154 26.184L19.9987 22.3673L16.182 26.184C16.0271 26.3402 15.8428 26.4642 15.6397 26.5488C15.4366 26.6334 15.2187 26.677 14.9987 26.677C14.7787 26.677 14.5608 26.6334 14.3577 26.5488C14.1546 26.4642 13.9703 26.3402 13.8154 26.184C13.6592 26.029 13.5352 25.8447 13.4506 25.6416C13.3659 25.4385 13.3224 25.2207 13.3224 25.0006C13.3224 24.7806 13.3659 24.5628 13.4506 24.3597C13.5352 24.1566 13.6592 23.9723 13.8154 23.8173L17.632 20.0006L13.8154 16.184C13.5015 15.8701 13.3252 15.4445 13.3252 15.0006C13.3252 14.5568 13.5015 14.1312 13.8154 13.8173C14.1292 13.5035 14.5549 13.3272 14.9987 13.3272C15.4425 13.3272 15.8682 13.5035 16.182 13.8173L19.9987 17.634L23.8154 13.8173C24.1292 13.5035 24.5549 13.3272 24.9987 13.3272C25.4425 13.3272 25.8682 13.5035 26.182 13.8173C26.4959 14.1312 26.6722 14.5568 26.6722 15.0006C26.6722 15.4445 26.4959 15.8701 26.182 16.184L22.3654 20.0006L26.182 23.8173Z" fill="#FF0000"/>
</svg>
