<svg width="48" height="48" viewBox="0 0 48 48" fill="none" xmlns="http://www.w3.org/2000/svg">
<g clip-path="url(#clip0_3394_2)">
<path d="M39.9996 27.2016V24.0016C39.9996 22.2343 38.567 20.8016 36.7996 20.8016H4.79961C3.0323 20.8016 1.59961 22.2343 1.59961 24.0016V43.2016C1.59961 44.9689 3.0323 46.4016 4.79961 46.4016H36.7996C38.567 46.4016 39.9996 44.9689 39.9996 43.2016V40.0016M39.9996 27.2016H27.1996C23.665 27.2016 20.7996 30.0669 20.7996 33.6016C20.7996 37.1363 23.665 40.0016 27.1996 40.0016H39.9996M39.9996 27.2016C43.5343 27.2016 46.3996 30.0669 46.3996 33.6016C46.3996 37.1363 43.5343 40.0016 39.9996 40.0016M11.1996 20.8016V11.2016C11.1996 5.89964 15.4977 1.60156 20.7996 1.60156C26.1015 1.60156 30.3996 5.89964 30.3996 11.2016V20.8016M38.3996 33.6016H41.5996M31.9996 33.6016H35.1996M25.5996 33.6016H28.7996" stroke="black" stroke-width="1.5"/>
</g>
<defs>
<clipPath id="clip0_3394_2">
<rect width="48" height="48" fill="white"/>
</clipPath>
</defs>
</svg>
