<svg width="30" height="30" viewBox="0 0 30 30" fill="none" xmlns="http://www.w3.org/2000/svg">
<path d="M15 3.75C6.71625 3.75 0 14.8538 0 14.8538C0 14.8538 6.71625 26.25 15 26.25C23.2838 26.25 30 14.8538 30 14.8538C30 14.8538 23.2838 3.75 15 3.75ZM15 22.5C10.8581 22.5 7.5 19.1419 7.5 15C7.5 10.8581 10.8581 7.5 15 7.5C19.1419 7.5 22.5 10.8581 22.5 15C22.5 19.1419 19.1419 22.5 15 22.5Z" fill="white"/>
<path d="M18.75 15.0151C18.75 17.0861 17.0709 18.7651 15 18.7651C12.9291 18.7651 11.25 17.0861 11.25 15.0151C11.25 12.9442 12.9291 11.2651 15 11.2651C17.0709 11.2651 18.75 12.9442 18.75 15.0151Z" fill="white"/>
</svg>
