<svg width="49" height="49" viewBox="0 0 49 49" fill="none" xmlns="http://www.w3.org/2000/svg">
<g clip-path="url(#clip0_4175_590)">
<path d="M29.0856 19.6263C29.4869 17.2745 28.9801 14.7428 27.4877 12.6452C25.9971 10.5455 23.7737 9.23354 21.4216 8.83868C19.0703 8.43716 16.538 8.94428 14.44 10.437C12.34 11.9271 11.0284 14.151 10.6338 16.5035C10.2327 18.8546 10.7395 21.3863 12.2322 23.4844C13.7219 25.5839 15.9459 26.8955 18.2983 27.2908C19.9552 27.5733 21.6999 27.3947 23.3213 26.7476L32.47 39.6238L32.939 39.2906L36.0685 37.067L39.3544 34.7323L36.9087 31.2901L33.6228 33.6248L32.2884 31.7467L35.7361 29.2971L34.0685 26.9501L30.6208 29.3997L26.9198 24.1908C28.0644 22.8726 28.8071 21.2839 29.0856 19.6263ZM21.9436 20.9978C21.1252 21.578 20.1768 21.7648 19.2589 21.6126C18.3421 21.4543 17.5085 20.9655 16.9264 20.1491C16.3467 19.3303 16.1591 18.382 16.3113 17.464C16.4701 16.5468 16.9585 15.7127 17.7752 15.1311C18.5936 14.551 19.5419 14.3643 20.4604 14.516C21.3772 14.6744 22.2111 15.1636 22.7936 15.9804C23.3728 16.7987 23.5601 17.7467 23.408 18.6646C23.2496 19.5815 22.7607 20.4159 21.9436 20.9978Z" fill="#5F6066"/>
</g>
<defs>
<clipPath id="clip0_4175_590">
<rect width="34.2356" height="34.2356" fill="white" transform="translate(0.484375 20.3516) rotate(-35.3943)"/>
</clipPath>
</defs>
</svg>
