<svg width="31" height="31" viewBox="0 0 31 31" fill="none" xmlns="http://www.w3.org/2000/svg">
<path d="M0 15.5001C0.0413333 15.5828 0.093 15.6965 0.155 15.8411C0.217 15.9858 0.372 16.2855 0.62 16.7401C0.868 17.1948 1.13667 17.6288 1.426 18.0421C1.71533 18.4555 2.11833 18.9515 2.635 19.5301C3.15167 20.1088 3.689 20.6565 4.247 21.1731C4.805 21.6898 5.49733 22.1961 6.324 22.6921C7.15067 23.1881 7.998 23.6221 8.866 23.9941C9.734 24.3661 10.7467 24.6555 11.904 24.8621C13.0613 25.0688 14.26 25.1825 15.5 25.2031C16.74 25.2238 17.9387 25.1101 19.096 24.8621C20.2533 24.6141 21.2763 24.3145 22.165 23.9631C23.0537 23.6118 23.8907 23.1881 24.676 22.6921C25.4613 22.1961 26.1537 21.6795 26.753 21.1421C27.3523 20.6048 27.8897 20.0778 28.365 19.5611C28.8403 19.0445 29.2433 18.5278 29.574 18.0111C29.9047 17.4945 30.1733 17.0708 30.38 16.7401C30.5867 16.4095 30.7417 16.1098 30.845 15.8411L31 15.5001C30.9793 15.4175 30.9277 15.3038 30.845 15.1591C30.7623 15.0145 30.6073 14.7251 30.38 14.2911C30.1527 13.8571 29.884 13.4231 29.574 12.9891C29.264 12.5551 28.861 12.0488 28.365 11.4701C27.869 10.8915 27.3317 10.3541 26.753 9.85813C26.1743 9.36213 25.482 8.85579 24.676 8.33913C23.87 7.82246 23.0227 7.38846 22.134 7.03713C21.2453 6.68579 20.2327 6.39646 19.096 6.16913C17.9593 5.94179 16.7607 5.82812 15.5 5.82812C14.2393 5.82812 13.0407 5.94179 11.904 6.16913C10.7673 6.39646 9.74433 6.68579 8.835 7.03713C7.92567 7.38846 7.08867 7.82246 6.324 8.33913C5.55933 8.85579 4.867 9.36213 4.247 9.85813C3.627 10.3541 3.08967 10.8915 2.635 11.4701C2.18033 12.0488 1.77733 12.5551 1.426 12.9891C1.07467 13.4231 0.806 13.8571 0.62 14.2911C0.434 14.7251 0.279 15.0248 0.155 15.1901L0 15.5001ZM9.703 15.5001C9.703 13.9088 10.261 12.5448 11.377 11.4081C12.493 10.2715 13.8673 9.70313 15.5 9.70313C17.1327 9.70313 18.507 10.2715 19.623 11.4081C20.739 12.5448 21.3073 13.9088 21.328 15.5001C21.3487 17.0915 20.7803 18.4658 19.623 19.6231C18.4657 20.7805 17.0913 21.3488 15.5 21.3281C13.9087 21.3075 12.5343 20.7391 11.377 19.6231C10.2197 18.5071 9.66167 17.1328 9.703 15.5001ZM11.625 15.5001C11.625 16.5748 12.0073 17.4945 12.772 18.2591C13.5367 19.0238 14.446 19.3958 15.5 19.3751C16.554 19.3545 17.4633 18.9825 18.228 18.2591C18.9927 17.5358 19.375 16.6161 19.375 15.5001C19.375 14.3841 18.9927 13.4748 18.228 12.7721C17.4633 12.0695 16.554 11.6871 15.5 11.6251C14.446 11.5631 13.5367 11.9455 12.772 12.7721L15.5 15.5001H11.625Z" fill="#5F6066"/>
</svg>
