<svg width="40" height="40" viewBox="0 0 40 40" fill="none" xmlns="http://www.w3.org/2000/svg">
<path d="M19.9987 3.33398C16.7023 3.33398 13.48 4.31147 10.7392 6.14282C7.99838 7.97418 5.86217 10.5772 4.60071 13.6226C3.33925 16.668 3.0092 20.0191 3.65228 23.2522C4.29537 26.4852 5.88272 29.4549 8.21359 31.7858C10.5445 34.1166 13.5142 35.704 16.7472 36.3471C19.9802 36.9902 23.3313 36.6601 26.3768 35.3986C29.4222 34.1372 32.0252 32.001 33.8565 29.2602C35.6879 26.5193 36.6654 23.297 36.6654 20.0006C36.6654 17.812 36.2343 15.6447 35.3967 13.6226C34.5591 11.6005 33.3315 9.76318 31.7838 8.21554C30.2362 6.66789 28.3989 5.44024 26.3768 4.60266C24.3547 3.76508 22.1874 3.33398 19.9987 3.33398ZM27.8487 17.8506L19.5154 26.184C19.3604 26.3402 19.1761 26.4642 18.973 26.5488C18.7699 26.6334 18.5521 26.677 18.332 26.677C18.112 26.677 17.8942 26.6334 17.6911 26.5488C17.488 26.4642 17.3036 26.3402 17.1487 26.184L12.1487 21.184C11.9933 21.0286 11.87 20.8441 11.7859 20.6411C11.7018 20.438 11.6586 20.2204 11.6586 20.0006C11.6586 19.5568 11.8349 19.1312 12.1487 18.8173C12.4625 18.5035 12.8882 18.3272 13.332 18.3272C13.7759 18.3272 14.2015 18.5035 14.5154 18.8173L18.332 22.6506L25.482 15.484C25.7959 15.1701 26.2215 14.9938 26.6654 14.9938C27.1092 14.9938 27.5349 15.1701 27.8487 15.484C28.1625 15.7978 28.3389 16.2235 28.3389 16.6673C28.3389 17.1112 28.1625 17.5368 27.8487 17.8506Z" fill="#07902F"/>
</svg>
