<svg width="29" height="29" viewBox="0 0 29 29" fill="none" xmlns="http://www.w3.org/2000/svg">
<path fill-rule="evenodd" clip-rule="evenodd" d="M19.2382 15.4646C19.3014 15.1527 19.3346 14.8299 19.3346 14.4993C19.3346 11.83 17.1706 9.66602 14.5013 9.66602C14.1707 9.66602 13.848 9.6992 13.5361 9.7624L14.651 10.8774C16.534 10.9539 18.0468 12.4667 18.1233 14.3496L19.2382 15.4646ZM11.3513 12.7041C11.049 13.2334 10.8763 13.8462 10.8763 14.4993C10.8763 16.5014 12.4992 18.1243 14.5013 18.1243C15.1544 18.1243 15.7673 17.9516 16.2965 17.6494L17.1741 18.527C16.4085 19.036 15.4896 19.3327 14.5013 19.3327C11.8319 19.3327 9.66797 17.1687 9.66797 14.4993C9.66797 13.5111 9.96458 12.5921 10.4736 11.8265L11.3513 12.7041Z" fill="#222222"/>
<path fill-rule="evenodd" clip-rule="evenodd" d="M19.5175 20.8747L18.6301 19.9872C17.3444 20.6868 15.9469 21.1465 14.4984 21.1465C12.4783 21.1465 10.557 20.2522 8.9004 19.0603C7.24851 17.8719 5.91089 16.4241 5.07093 15.4042C4.55816 14.7817 4.50521 14.674 4.50521 14.5007C4.50521 14.3273 4.55816 14.2196 5.07093 13.5971C5.87965 12.6152 7.14972 11.2365 8.71743 10.0746L7.85429 9.21143C6.24541 10.4294 4.95723 11.8345 4.13824 12.8288L4.06718 12.9148C3.6678 13.3974 3.29688 13.8456 3.29688 14.5007C3.29688 15.1557 3.66779 15.6039 4.06718 16.0865L4.13824 16.1725C5.01422 17.2361 6.42694 18.7693 8.19471 20.0412C9.95772 21.3096 12.1254 22.3548 14.4984 22.3548C16.3231 22.3548 18.0263 21.7369 19.5175 20.8747ZM11.1029 7.33355C12.1661 6.91024 13.3064 6.64648 14.4984 6.64648C16.8715 6.64648 19.0392 7.69169 20.8022 8.9601C22.57 10.2319 23.9826 11.7653 24.8587 12.8288L24.9297 12.9148C25.3291 13.3974 25.7 13.8456 25.7 14.5007C25.7 15.1557 25.3291 15.6039 24.9297 16.0865L24.8587 16.1725C24.2781 16.8773 23.4619 17.7885 22.4627 18.6932L21.6071 17.8377C22.5685 16.9724 23.3601 16.0913 23.926 15.4042C24.4388 14.7817 24.4917 14.674 24.4917 14.5007C24.4917 14.3273 24.4388 14.2196 23.926 13.5971C23.0861 12.5772 21.7484 11.1294 20.0965 9.94096C18.4399 8.74907 16.5185 7.85482 14.4984 7.85482C13.6594 7.85482 12.8373 8.0091 12.0443 8.27489L11.1029 7.33355Z" fill="#222222"/>
<path d="M5.04297 4.41602L24.3763 23.7493" stroke="#222222"/>
</svg>
